<svg xmlns="http://www.w3.org/2000/svg" viewBox="0 0 297.55 359.46"><defs><style>.cls-1{fill:none;stroke:#000;stroke-linecap:round;stroke-linejoin:round;stroke-width:7px;}</style></defs><g id="Calque_2" data-name="Calque 2"><g id="Graphic_elements" data-name="Graphic elements"><path class="cls-1" d="M33.14,321a24.6,24.6,0,0,0,22.29,35h0A24.57,24.57,0,0,0,80,331.26c-.09-10.52.4-20.45,2.51-20.62,11.75-1,31.55-2.8,36.81-2.8h24.87A19.39,19.39,0,0,0,157,303l38.87-34.23,28.46-32.31s.48-5.63-8.69-1.77-18.32,15.11-18.32,15.11,1-13,0-15-8.84-18.48-12.22-20.25-6.43,7.71-4.18,14.14,5,13.67,5,13.67l-3.37,18.32-2.73-9.32s2.89-1.77,2.89-4-1.29-4.66-4.82-5.46a9.92,9.92,0,0,0-2.37-.4c-.64-1.33-3.9-7.87-6.64-9.89-3.05-2.25-12.7-11.9-14.79-12.06s-3.69,3.22-1,10.45a33.33,33.33,0,0,0,8.68,12.22l-3.86.64s-11.09-13.82-14-13.82-4.67,4.5-2.09,9,3.85,7.07,3.85,7.07-24,3.38-30.22,3.38S87.72,255,82.42,258.64s-22.16,13.81-26.21,18.17S42.08,301.8,33.14,321Zm130.7-63.2h2.66s.53,3.57,1,5.71-3.62,3.13-3.62,3.13.89-3.22,1-3.86A43,43,0,0,0,163.84,257.76Zm-28.94,5.71,16.42-3.19.46,4.88-3.05,4.09C141.34,268.53,134.9,263.47,134.9,263.47Z"/><path class="cls-1" d="M145.75,245.14l4.83,7.24,1.2,12.78-9.16,12.29S99,272.24,80.94,285.17"/><path class="cls-1" d="M153.71,292.89s11.09-26.77,11.09-30.15-4.52-17.06-6.83-19.85"/><path class="cls-1" d="M175.66,241.77l4.18,9.64,2.73,9.32.8,2.59a5.37,5.37,0,0,1-.53,4.39l-10.56,17.46"/><line class="cls-1" x1="197.36" y1="249.8" x2="197.36" y2="261.3"/><polyline class="cls-1" points="161.83 242.25 164.8 246.47 166.5 257.76"/><path class="cls-1" d="M250.71,70.68c0-30.38-22.14-55-49.47-55a45,45,0,0,0-17.62,3.6,67.18,67.18,0,1,1,0,102.8,45,45,0,0,0,17.62,3.61C228.57,125.69,250.71,101.06,250.71,70.68Z"/><line class="cls-1" x1="3.5" y1="153.24" x2="53.33" y2="153.24"/><line class="cls-1" x1="75.96" y1="153.24" x2="125.79" y2="153.24"/><line class="cls-1" x1="64.65" y1="92.09" x2="64.65" y2="138.47"/><line class="cls-1" x1="64.65" y1="168" x2="64.65" y2="214.38"/><line class="cls-1" x1="32.03" y1="120.62" x2="42.28" y2="130.87"/><line class="cls-1" x1="24.21" y1="112.8" x2="28.74" y2="117.33"/><line class="cls-1" x1="97.32" y1="185.91" x2="87.07" y2="175.66"/><line class="cls-1" x1="105.14" y1="193.73" x2="100.61" y2="189.2"/><line class="cls-1" x1="42.28" y1="175.6" x2="31.55" y2="186.34"/><line class="cls-1" x1="97.32" y1="120.62" x2="87.07" y2="130.87"/><line class="cls-1" x1="105.14" y1="112.8" x2="100.61" y2="117.33"/><line class="cls-1" x1="24.21" y1="193.73" x2="28.74" y2="189.2"/><line class="cls-1" x1="21.58" y1="134.89" x2="35.55" y2="140.84"/><line class="cls-1" x1="93.74" y1="165.63" x2="107.71" y2="171.58"/><line class="cls-1" x1="82.99" y1="110.17" x2="77.04" y2="124.14"/><line class="cls-1" x1="52.25" y1="182.33" x2="46.3" y2="196.3"/><line class="cls-1" x1="47.17" y1="109.81" x2="52.84" y2="123.89"/><line class="cls-1" x1="76.46" y1="182.58" x2="82.12" y2="196.66"/><line class="cls-1" x1="108.07" y1="135.76" x2="93.99" y2="141.43"/><line class="cls-1" x1="35.3" y1="165.04" x2="21.22" y2="170.71"/><path class="cls-1" d="M64.65,118.24c0,33.15-1.63,35-30.9,35,29.27,0,30.9,1.84,30.9,35,0-33.15,1.62-35,30.89-35C66.27,153.24,64.65,151.39,64.65,118.24Z"/></g></g></svg>