<svg xmlns="http://www.w3.org/2000/svg" viewBox="0 0 558.05 375.67"><defs><style>.cls-1{fill:#000;stroke:#000;stroke-miterlimit:10;stroke-width:1px;}</style></defs><g id="Calque_2" data-name="Calque 2"><g id="Calque_1-2" data-name="Calque 1"><path class="cls-1" d="M271.3,46.86c1.19-6,2.44-11.4,3.33-16.88.74-4.51,2.74-5.57,7.18-4.27,26.77,7.86,53.62,15.44,80.4,23.27a10.72,10.72,0,0,0,8.08-.5c18.35-8.37,37.18-15.37,57.25-18.35,10.76-1.59,21.54-2.07,32.13,1.37,13.7,4.44,21.61,14.85,22.31,29.23.84,17.38-5.25,33-12.31,48.31-1.45,3.17-4.62,6.42-4.27,9.31.37,3.11,5.7,3.15,8.12,5.54s3.86,2,6-.66A14.6,14.6,0,0,1,498,119.56a15.29,15.29,0,0,1,7.51,17c-1.9,7.12-7.58,11.64-15.09,11.24-3.36-.18-4.75.7-4.95,4-.18,2.9-3.76,5.55-2.08,8.14,1.36,2.09,4.7,2.89,7.13,4.31,5.9,3.45,11.66,7.13,16.51,12,1.86,1.87,3.38,2.28,6,1.32,11.7-4.29,23.29-.93,30.9,8.61a27.15,27.15,0,0,1,1.37,31.32c-6.12,9.68-17.75,14.18-29.61,11.47-1.66-.38-3.12-1.37-4.92.47-15.56,15.94-35.46,24.26-55.92,31.54-15.68,5.58-31.81,9.53-48.1,12.91-.78.16-1.55.41-2.6.7,2,3.45,5.05,5.56,7.48,8.2,1.74,1.89,3.49.3,5-.36,7.26-3.19,14.44-6.56,22.27-9.28-3.34,4.34-6.53,8.81-10.1,13-2.07,2.42-2.14,3.62.58,5.7,7.92,6.07,15.56,12.51,23.25,18.88,1.2,1,2.91,1.74,3.06,4.46-13.08-3.39-25-9.11-38-13.8,3.89,14.12,9.39,27.4,11.59,42.79-4.07-3.41-5.84-7-7.73-10.34-5.7-10.13-11.32-20.31-16.74-30.59-1.27-2.41-2.58-3.25-5.31-3.25-10.82,0-21.66.6-32.44-1-1.91-.29-3.88-.38-5.88-2.23,6.58-3.44,13.55-3.86,20.28-5,5.9-1,11.86-1.68,17.81-2.4,2.4-.29,3.49-1,1.64-3.3a3.71,3.71,0,0,1-.53-.84c-3-7.22-7.47-9.14-15.76-7.59-24.07,4.49-48.54,6.1-73,7a13.34,13.34,0,0,0-7.68,2.84c-31.16,23.28-64.55,42.63-100.72,57-7.4,2.94-15.09,5.16-22.71,7.48-2.7.82-4.41,1.72-5.24,4.86-2.67,10-10.57,16.06-20.65,16.49s-18.29-5-22.11-14.62c-.69-1.74-.79-3.74-3.26-4.53-18-5.76-23.48-22.38-21-40.31,2.25-16.38,8.64-31.32,16.56-45.64,1.91-3.45,1.75-4.81-2.33-6a149.13,149.13,0,0,1-24.62-9.51c-2.53-1.23-3.48-.87-4.81,1.65C82.25,274.65,58.53,279.92,40.13,266c-2-1.48-3.51-1.88-5.75-.95a50.18,50.18,0,0,1-14.45,3.66c-3.33.32-6.89.4-9-2.92-2-3.16-.17-6.08,1.21-8.92a27.07,27.07,0,0,1,1.44-2.32c-2.32-.92-4.48-1.6-6.47-2.6-5.57-2.76-6.2-7.42-1.48-11.42,5.3-4.49,11.72-6.9,18.25-8.87a7.74,7.74,0,0,0,5.65-5.35c3.39-9.21,9.94-15.56,18.86-19.51,1.48-.65,3.14-.79,3.24-3.12.59-14.17,9.26-23.48,19.6-31.52C87.78,159.3,107,151.87,126.7,145.62a382.1,382.1,0,0,1,62.69-14.07,10.38,10.38,0,0,0,8.35-5.6c7.2-12,18.63-18.74,31.35-23.38S252.57,90.79,259.61,79c5-8.34,7-17.19,3.33-26.71A17,17,0,0,0,255,43a7.59,7.59,0,0,0-7.64-.06,3.23,3.23,0,0,0-2,3.16,2.54,2.54,0,0,0,2.71,2.41c3.84,0,5.67,2.06,5,5.7-.71,4-4,3.94-7.08,3.59-5.26-.61-9.22-4.78-10-10.29a12.76,12.76,0,0,1,8-13.57c8.36-3.51,17.74-.34,24,8.15C269.11,43.49,270,45,271.3,46.86Zm83.05,151.29c-1.13,1-2.8.15-3.74.77-2.75,1.81-4-.11-5.15-1.84a3.91,3.91,0,0,1,1.13-5.7c2-1.36,3.73-2.36,1.66-4.87-1.89-2.31-4.2-2.4-6.68-1.1-4.15,2.19-5.3,8.42-2.18,13.1a56.22,56.22,0,0,0,5.18,5.88l-8.79,4.09,2.41,2.29-1.4.4-.86.56c-5.22.27-3.61,4.53-4.35,7.43-3.1,0-2.77-2.46-2.88-4.49-13,4.32-21.29,1.71-29.92-9.55-1.65-2.15-3-1.2-4.71-.64-8.64,2.78-16.74,1.39-24.3-3.49-2.44-1.58-13.62-3.82-16.6-3.37-3.35.5-7.7,1-9.44-1.48-1.93-2.78,1.11-6.11,3-8.81a22,22,0,0,1,2.34-2.59,70.8,70.8,0,0,1,29.24-18.41c2.11-.7,3.58-1.06,2.7-4.3a15.2,15.2,0,0,1,1.69-12.53c2.45-3.72,5.7-6.16,10.47-5s6.54,4.66,7.19,9.12c.42,2.89-1,5.46-1.45,8.41l3.64.21c9.72.57,14.58,4.4,17.07,13.72a58.68,58.68,0,0,1,1.4,8.35c1.21,10.65-.34,21-4.25,32a89.1,89.1,0,0,1,8.71-3.35c3.33-.88,4.18-2.76,4.3-6.1.16-4.75-1.56-9.22-1.5-13.83.19-14.45-4.65-27.26-12.23-39.23a13.2,13.2,0,0,1-2.39-7.46c.14-11.78,4-21.07,15.35-26.76,19.76-9.87,30.63-27.92,41-46.3,1.29-2.28-.29-3.48-1.33-4.77-5.62-7-16.42-8.55-25.42-3.21-3.28,1.94-4.63,1.94-7.32-1.19C327,53.73,316.15,49,303.76,55.88c-2.21,1.22-3.1.27-4.46-1.17a30.29,30.29,0,0,0-21.11-9.91c-2.53-.13-3.54.59-3.74,3.19-1.64,21.26.09,41.93,10.83,60.93,7.88,13.94,3.48,28.77-10.88,36.06-10.24,5.2-20.46,10.36-27.34,20.25a148,148,0,0,0-12.67,21.42c-.71,1.52-2.42,3.79-3.18,1.79-1.31-3.44-2.62-1.19-3.82-.73a60.22,60.22,0,0,0-6.29,3c-12.68,6.68-25.18,13.62-35,24.45-1.72,1.89-2.39,3.11.25,4.95s4.52,5.05,3.73,8.24c-1.56,6.3,2.23,7.16,6.75,7.77,1.15.15,2.3.34,3.45.49,16.73,2.24,33.24,0,49.7-2.58a226.15,226.15,0,0,0,30.35-6.66c-2.08-.68-3.31-1.13-4.57-1.5-16.11-4.65-32.19-9.41-48.36-13.85-3.72-1-4.55-2.75-3.4-6.07,1.26-3.61,2.6-7.19,3.67-10.85,1-3.43,1.85-4.34,5-1.43,7.66,7,16.5,9.94,26.59,5.42,2-.91,2.92-.1,4.24,1.11,8.55,7.85,18.45,10.92,29.9,8,1.29-.32,2.39-1,3.48.52,3.12,4.43,7.75,7,13.18,9.81-8.54,2.58-16.32,4.92-24.09,7.28-1,.31-3.13.73-2.8,1.24,2.74,4.16-1.6,2.58-2.49,2.83a271.07,271.07,0,0,1-44,8.66c-14.91,1.7-29.89,2.72-44.66-1.18-2.68-.7-4.61-1-7.16.89-3.74,2.81-8.24,2.56-12.21.08s-5.62-6.38-5.13-11.13,3.25-9,7.26-9c6.57-.05,9-4.67,12.6-8.17,11.68-11.23,25.73-18.77,40.31-25.32,4.67-2.1,7.51-5,8.89-9.77-.52-.07-1.06-.32-1.48-.19-9.87,3.06-19.11,1.55-27.63-4.06-2.29-1.52-3.2-.29-4.5,1-23.25,23.45-44.8,48.3-63.23,75.79-2.72,4.06-1.23,4.93,2.44,6,16.08,4.87,32.62,6.42,49.29,6.8,27.56.63,54.87-2.32,82-7.1,18.31-3.24,36.56-6.86,54.31-12.56l2-.39,1.25-.5,5.75-1.49,1.26-.51,8.74-2.51,1.21-.5c8.55-2.08,16.7-5.37,25-8.26a8.47,8.47,0,0,0,2.86-1.9c24-23,46.42-47.49,65.89-74.55,2.31-3.21.64-3.44-1.89-3.68l-2.12-.56a112.66,112.66,0,0,0-20.44-5.29l-1.51-.47a123.21,123.21,0,0,0-18.37-3.59l-1.62-.4a169.12,169.12,0,0,0-23-3.52,7.37,7.37,0,0,0-4.94-.55,5.83,5.83,0,0,0,1.35,3.85,23.9,23.9,0,0,0,4.25,7q2.6,3.63,5.2,7.24l2.35,3.62c.8,2.91,3.5,3.21,5.72,4.17,3.31,2.65,5.69,5.82,5.89,10.26l-.39,1.51-1.38,4.28c-2.49-1-1.35-3-1.15-4.62.5-4.07-1.05-7-5.93-9.71,5.16,8.57,6.58,15.78-2.82,21.26a58.67,58.67,0,0,0-8.2-22.09c-1.06-1.77-2.2-3-4.54-3.23-14.7-1.59-29.18.37-43.67,2.3-2.14.29-1.91,1.27-1.18,2.7,3.45,6.78,5.43,14.09,7.27,21.62,8.83-8,16.77-9.12,23.19-3.47,5.79,5.1,6.36,11.67,1.62,18.63Zm153-18.17c-7.15-7.17-15.6-12.35-24.36-17.11-1.8-1-2.58-.18-3.53,1.22-5.68,8.36-13.06,15.07-21,21.15-23.9,18.19-50.82,30.69-78.61,41.51a20.31,20.31,0,0,0-6.66,4.14c-12.06,11.25-24.45,22.13-37.28,32.48-7.44,6-15,11.81-23.55,18.49a586.21,586.21,0,0,0,80.55-8.1c-2.46-5.42-6.35-9.58-7.7-16.28,5.53,3.69,9.11,7.63,12.65,11.47,2.49,2.7,4.93,3.22,8.32,2.49,15.44-3.33,30.81-7,45.74-12.15,18.91-6.54,37.31-14.19,52.75-27.44,5.19-4.45,5.13-4.48.17-8.71a27.92,27.92,0,0,1-3.13-3.21C493.63,210.31,491.52,192.58,507.36,180ZM301.77,284.86c-2.59,0-5.18,0-7.77,0A649.76,649.76,0,0,1,195,278.67a449.33,449.33,0,0,1-61.9-13.09c-1.76-.51-3.31-1.5-4.62.92-8.8,16.29-16.81,32.94-18.16,51.75-1,13.24,2.74,24.64,15.42,31.6,4,2.19,5.19,2,5.89-2.93,1.53-10.94,10.5-18.43,21.3-18.73,11.16-.31,20.78,6.74,22.68,17.71.8,4.59,2.32,4.22,5.68,3.21C225.57,335.8,264.48,312.19,301.77,284.86Zm69-206.43c3.19-1.25,5.83-2.56,8.62-3.33,10.94-3,21.18,1.88,24,11.27A12.6,12.6,0,0,1,398.49,100a12.16,12.16,0,0,1-13.14.25c-2.64-1.7-3.67-4-2.26-6.79s3.83-3.09,6.38-1.73c1.63.87,3,1.47,4.32-.35,1.45-2,.25-3.44-1-4.83-3-3.43-8.89-3.91-14.32-1.08-7.25,3.77-11.39,10-13.46,17.71s-2,7.77,6.09,7.33c1.33-.07,2.65-.25,4-.32,28.48-1.47,56.9-2.06,84.49,7.06,2.09.69,3,.13,3.88-1.63,7.47-14.36,13.92-29.08,15.94-45.34,2.55-20.57-7.25-34.55-26.91-38a60.33,60.33,0,0,0-13.43-.68c-23.81,1.22-45.71,9.33-67.13,19.05-.15.07-.1.55-.15.9.78.3,1.53.66,2.32.9,6.46,2,6.43,1.93,4.27,8.53C376.44,66.9,373.67,72.47,370.77,78.43Zm-267,143.66c7.53,1.24,7.41,1.19,10.17-5.25a57,57,0,0,1,4.78-8.7c5.19-7.88,12.09-14.13,19.42-19.94,16.25-12.88,34.36-22.63,53.07-31.32,2.63-1.22,3.89-2,2.78-5.39a23,23,0,0,1-.57-13.8c1.1-3.77,0-4.45-3.67-3.86-25.61,4.19-50.89,9.66-75.3,18.71C99.6,158,85.22,164.47,72.66,174.29c-8.65,6.75-16,14.58-18.31,25.9-.64,3.14-.52,5,3.66,4.36a27.82,27.82,0,0,1,16.59,2.12c3,1.5,5.49,1,8.36-.21,6.86-3,13.86-5.68,21.44-6.14,3.12-.19,6.54-.49,8.55,2.72,2.14,3.39.19,6.37-1.39,9.29C109.64,215.87,106.66,218.58,103.77,222.09Zm261.92,11c-1.59-1-2.95-.13-4.33.34-46.1,15.41-93.22,25.83-141.83,28.74-27.34,1.64-54.58,1.4-81.06-7.21-5.39-1.76-5.19,3.66-6.57,6.08-1.25,2.21,2.1,2.07,3.49,2.46,55.32,15.56,111.92,19.75,169.08,18.78,2.34,0,4-1.11,5.82-2.42,18-13.21,35.12-27.48,51.76-42.34C363.44,236.27,365.48,235.38,365.69,233.09ZM121.35,231.8c-.13.5-.08,1.58-.59,2.06-5.12,4.73-.91,7.35,2.33,9.91,2.59,2,5.61,3.54,8.34,5.42,2.5,1.71,3.8,1,5.41-1.48,17.06-26.35,37.35-50.08,59.19-72.54,2.31-2.38,6.19-4.6,6.47-7.21.27-2.44-3.45-5.2-5.05-8-1.19-2.11-2.3-2.22-4.3-1.19-6.06,3.11-12.3,5.87-18.28,9.1-18.48,10-36.35,20.84-50.31,37a45.71,45.71,0,0,0-9.27,15.79c-.71,2.2-.93,4,2,5.14A6,6,0,0,1,121.35,231.8Zm261.59-10.36a6.39,6.39,0,0,0,4.21-.28c23.68-9.8,46.66-20.91,67.35-36.23a107.65,107.65,0,0,0,21.91-21c1.89-2.47,1.84-3.68-1.22-5-8.12-3.39-16.29-6.59-24.57-9.53-3.23-1.15-4.85-.64-6.85,2.17C425.93,176.78,405.38,199.6,382.94,221.44Zm20.65-109.61c-9.83,0-19.65.15-29.46.92-11.74.93-11.76.85-9,12.45.67,2.8,2,4,5,4.39a411.07,411.07,0,0,1,70.78,14.29c3.67,1.09,5.37.29,7.14-2.76,3.26-5.6,6.76-11.07,10.37-16.45,2.1-3.15,2.07-4.66-2.07-5.92C439.13,113.53,421.45,112.11,403.59,111.83ZM44.41,252.74c4.22-.59,9.53.53,14.3-2.11A261.3,261.3,0,0,0,89.09,230.8c2.46-1.85,2.77-3.36,1.37-6.1a31.95,31.95,0,0,0-60.32,17.92c1.06,9.78,2.25,10.8,12,10.26Zm478.32-26a24.08,24.08,0,1,0-24.3-23.91A24,24,0,0,0,522.73,226.77Zm-251-150.92c-8.37,18.89-22.23,29.67-40.13,35.84a56.38,56.38,0,0,0-17.63,10c-2.3,1.89-5,3.6-6.15,7.06,14-1.38,27.49-2.9,41.11-3.38a6,6,0,0,0,3.51-1.65l24.39-19c1.18-.92,2.28-1.59,1.42-3.61C275,93.54,273.31,85.41,271.73,75.85Zm96.94,77c-5-7-9-13.2-11.07-20.46-.49-1.75-1.7-2.28-3.33-2.4-9.6-.71-19.2-1.46-28.81-2.14-1.42-.1-2.86-.33-3.93,1.31-3.84,5.92-6.28,12.29-4.5,19.29.79,3.12,1.71,7.74,6.64,7C338.27,153.27,352.91,152,368.67,152.89Zm115-4.68c.54-1.7-.87-2.57-2.2-3.64a15.24,15.24,0,0,1-5.65-12.19c-.06-3.56-8.32-10.84-11.93-10.56-1.26.1-1.51,1.15-2,1.94-4.13,6.59-8.15,13.25-12.39,19.76-1.27,2-1.17,2.5,1.13,3.31q11.21,4,22.21,8.51c8.07,3.34,8.88,3,10.6-5.81C483.5,149.21,483.56,148.88,483.67,148.21Zm-391.53,100c-17.27,5.56-35.78,3.6-50.54,14.76C57.31,278.05,84.48,270.69,92.14,248.22Zm146-107.14c7.48,3.6,10.17,9.5,10.61,17.13,7.75-7.75,16.92-12.06,25.94-16.6,5.8-2.92,9.16-7.58,11.05-14.41C269.35,131.16,254,135.54,238.09,141.08Zm8.17-13.18c-5.84.42-11.31.74-16.76,1.22-5.62.5-11.22,1.2-16.84,1.71-8.31.75-9,1.31-10.23,9.49a29.93,29.93,0,0,0-.06,5.44c.16,4.18,1.51,6.21,6,3.64a46.51,46.51,0,0,1,7.31-2.89C227,142.43,238.43,138.63,246.26,127.9ZM94.4,248.09a167.4,167.4,0,0,0,32.31,12.59c3.83,1,3.85-4,5.65-6.2,1.67-2-.85-2.27-2-2.84a41.21,41.21,0,0,1-13.67-10.5c-.74-.91-1.38-2-2.81-1.1C108.22,243.44,101.79,245.12,94.4,248.09ZM82,210.1c3,3.1,6.33,5.66,8.66,9.16,2,3,7.74,3.52,10.39,1a46.5,46.5,0,0,0,8.26-10c1-1.69,2.44-3.6,1.16-5.54s-3.78-1.93-5.94-1.63A78.62,78.62,0,0,0,82,210.1Zm196.13-85.64c8.55,0,10.14-2.56,6.58-10.53-1-2.26-2.56-4.26-3.66-6.48-.68-1.38-1.21-1.72-2.52-.69m46.21,18.47,21.49,1.58c3,.22,6.9,1.76,8.69.42,2.55-1.91-.69-5.7-.22-8.75.59-3.79-1.65-3.54-4.46-3.58C340.67,114.76,333.84,120.83,324.72,125.23Zm-228,118.49a63.31,63.31,0,0,0,15-5.92c.85-.47,2.29-1,1.73-2-1.72-2.95,0-7.35-3.32-9.31A10.72,10.72,0,0,0,97,228.14c-.85.9-1.45,1.64-1.15,3A59.47,59.47,0,0,1,96.69,243.72Zm122.9-87.87-6.81,6.51c2.05,2.3,4.64,3,7.1,3.78,6.87,2.09,13.68.3,17.21-4.32,2.83-3.7,2.31-8.82-1.09-11a4.52,4.52,0,0,0-5.13.06c-2,1.2-1.34,2.44-.4,4.08,1.24,2.19.37,4.2-1.56,5.65a4.4,4.4,0,0,1-5.92-.36A28.66,28.66,0,0,1,219.59,155.85ZM26.65,233.76c-6.66,2.29-13.32,4.44-18.81,9-3.38,2.77-3.12,4.8.77,6.67s7.76,3.25,11.17-1.66C22.72,243.49,29.15,241.29,26.65,233.76Zm39.68,15.83c9.37.4,17.06-2.33,24.92-4a2.7,2.7,0,0,0,2.34-2.78c.15-3.55.66-7.16-1-10.91A236.73,236.73,0,0,1,66.33,249.59ZM18.25,265.71c5.39-.1,10.08-1.71,14.79-3.24.84-.27,2.43-.69,1.51-1.82-1.53-1.87-2-5-5.56-4.86-3.1.12-6.24-.49-9.36-.71-2.61-.19-6.54,4.18-6.49,7.38C13.2,266.33,16.3,265.42,18.25,265.71ZM241.86,136.9l31-9.24C261.68,127.48,249.77,124.77,241.86,136.9Zm-20.3,10.76c-5.64.24-10.3,3.09-15.17,5.22-2.73,1.2-.71,2.87.25,3.81,1.38,1.36,2.12,5.28,4.86,3C215.45,156.47,220,153.43,221.56,147.66Zm123.51-35c9.7-.33,10.13,2.13,9.25-9.85ZM27.45,244.87a28.94,28.94,0,0,0-7.75,7.5l10,.55C28.86,249.91,28.2,247.54,27.45,244.87ZM47.3,256.11H35.63C38.62,261.29,38.76,261.29,47.3,256.11Zm68.75-21.38c3.43-4.13,3.36-4.35-1.68-6.6A15.16,15.16,0,0,0,116.05,234.73Z"/><path class="cls-1" d="M84.43,121.25a104,104,0,0,1-29.34,22.08c-3.44,1.77-7.32,4.46-11.13,1.47s-1.87-7.13-1.08-10.75c3.38-15.5,10.22-28.47,26.2-34.45.59-.22,1.46-.58,1.58-1C73.88,86.35,85,85.18,94.36,81.81c2.9-1,6.22-1,9.37-1.25,2.66-.25,5.62.58,6.27-3.6.24-1.52,2.48-2,4.11-2.42,9.4-2.63,18.08.08,26.66,3.53,4.45,1.79,8.33,4.53,13.91,2.75,4.39-1.4,8.74,3,9.28,7.6s-2.57,9.25-7.35,9.58c-9.15.64-17.22,4.6-25.62,7.58-4.63,1.65-9.11,4.32-14.36,2.74-1.95-.58-2.61,1.16-3.56,2.13a112.57,112.57,0,0,1-14.74,12.68C92.26,127.45,89.14,127,84.43,121.25Zm28.37-43c.67,2.23,3.89,1.82,3.12,4s-2.93.6-4.46.84a24.8,24.8,0,0,1-3,0C97,83.46,86,85.8,76.79,93.22c-1.06.85-4,1.72-1.82,4,2.77,2.85.35,3.25-1.57,3.86-17.17,5.41-24.69,18.54-28,35-.43,2.15-1.55,4.89.68,6.49,1.95,1.39,4.22-.15,6.07-1.1,11.77-6,22.55-13.41,31.14-23.65.72-.87,1.23-2.17,2.6-2.09,1.79.11,1.1,1.76,1.41,2.72,1.69,5.14,3.83,6,8.45,2.84a106.67,106.67,0,0,0,15.14-13c2.23-2.23,3.83-6.42,8.23-2.68.71.6,2.65.11,3.86-.32,8.5-3,17-6.2,25.58-9.38-1.27-2.08-3-4.25-2.25-6.13,2.51-6.32-2.35-7.09-6.07-8.74a57,57,0,0,0-7.44-2.79C126.23,76.4,119.61,75.26,112.8,78.2Z"/><path class="cls-1" d="M542.7,111.48c0,4.16,0,8.33,0,12.49,0,1.56-.57,3.37,2.16,3.51,2.42.12,3.25-1,3.52-3.11a38.93,38.93,0,0,1,3.81-11.8c.51-1.06.69-3.13,2.4-2.48,1.88.72.47,2.31,0,3.36A47.09,47.09,0,0,0,551,123.79c-.33,1.7-1.07,3.86,2.15,3.63,1-.07,2.18-.11,2.05,1.36-.1,1.07-1.14,1.14-2,1-3.14-.38-3,1.41-2.74,3.68a23.46,23.46,0,0,0,3.7,10.2c.57.85,2.14,1.84.75,2.88-1.61,1.2-2.29-.64-3-1.62-2.62-3.6-3.69-7.78-4.14-12.11-.19-1.81-.27-3.08-2.72-3.07s-2.63,1.24-2.63,3.1c0,3.17-.06,6.34-.28,9.49-.32,4.49-.76,8.41,5,10.54,3.94,1.45,3.92,7.62.76,10.68s-9.79,3.52-13.4.74c-4.84-3.71-4-10.17,2-12.67,2.45-1,3.17-2.16,3.1-4.65-.12-4.66.11-9.32.19-14,0-1.67.31-3.31-2.38-3.24-2,.05-3,.54-3.18,2.71a22.18,22.18,0,0,1-3.71,11.24c-.75,1.1-1.51,3.3-3.26,2.06-1.59-1.12.41-2.2,1-3.19a22,22,0,0,0,3.16-7.81c.4-2.52,1.46-5.62-3.2-5a1.21,1.21,0,0,1-1.44-1.06c-.1-1.22.9-1.34,1.66-1.25,4,.46,3.44-2.11,2.79-4.36-1-3.34-2.37-6.55-3.36-9.89-.34-1.17-2.61-2.78-.28-3.68,1.87-.72,2.11,1.68,2.67,2.89a39,39,0,0,1,3.6,11.35c.26,2.16.57,3.74,3.47,3.69,3.39-.06,2.62-2.34,2.66-4.15.22-8.32.32-16.65.53-25,0-1-.53-2.83,1.05-2.88,2.09-.07,1.26,1.9,1.29,3,.08,4.33,0,8.66,0,13Zm-1.77,52.26c3.4-.2,6.51-1.35,6.65-5.17.16-4-3.24-5.09-6.47-5.44-3.49-.37-7.5,2.77-7.08,5.48C534.61,162.34,537.45,163.56,540.93,163.74Z"/><path class="cls-1" d="M204.93,28.11c-4.53,2.66-8.75,2.55-12.65,3.33-2.86.57-3.42,1.45-2.48,4.21a45.15,45.15,0,0,0,11,17.57c.76.76,2.24,1.65,1.19,2.83-1.38,1.56-2.32-.29-3.09-1a41.76,41.76,0,0,1-11.51-18.93c-.67-2.43-1.62-4-4.36-2.93-2.25.87-5.76-.24-5.29,4.6.7,7.18-.88,14.22-3.54,21-.51,1.31-.65,3.65-2.48,3.06-2.2-.72-.3-2.54.11-3.67a58,58,0,0,0,3.55-19.51c0-2.95-.8-4.27-4.13-3.25a72.09,72.09,0,0,1-9.31,1.74c-.8.13-1.82.16-2-.9s.72-1.36,1.57-1.52a81.05,81.05,0,0,1,9.8-1.8c3.42-.24,3.17-1.89,2.38-4.23A45.15,45.15,0,0,0,163.4,11.74c-.89-.93-3.29-1.92-1.78-3.41,1.78-1.74,2.82.85,3.8,1.85A44.07,44.07,0,0,1,176,27.43c.66,2,.29,4.93,4.12,3.88,3.14-.85,6.3-.63,5.75-5.74-.78-7.2,1.13-14.18,3.77-20.91.42-1.07.67-2.57,2.21-2.06,1.95.65.43,2,.12,2.84a59.91,59.91,0,0,0-3.88,20.47c0,2.79.69,3.72,3.81,3.17C195.79,28.38,199.71,26.58,204.93,28.11Z"/><path class="cls-1" d="M520,273c-9.22,2.76-9.48,11.89-14,18.55,6.1,1.38,10.75,4.32,12.73,10.15a14.34,14.34,0,0,1-.91,11.61A14.67,14.67,0,0,1,497.57,319c-8.37-4.83-9.35-13.79-2.53-24.2-6.79-2.4-12.46-7.69-20.87-7,2.47-3.47,5.27-2.62,7.52-1.8,3.88,1.41,7.52,3.49,11.31,5.16,6.58,2.9,9.61,1.76,12.84-4.72,1.85-3.7,3-7.8,5.82-10.95C513.81,273.15,516.24,271.09,520,273Zm-14.92,21.38a12.07,12.07,0,0,0-.35,24.13,12.07,12.07,0,0,0,.35-24.13Z"/><path class="cls-1" d="M46.05,292.19c.23-1.67,1.48-1.58,2.63-1.57,3.41,0,7.45.92,6.21-4.94-.18-.82.53-1.21,1.24-1.13a1.15,1.15,0,0,1,1,1.41c-1,5.58,2.81,4.66,6.08,4.69,1,0,2.67-.69,2.89,1s-1.38,1.39-2.46,1.49c-6.94.6-6.94.6-6.06,7.82,2,.38,3.39-1.06,5-1.65,9.57-3.47,16.57,2,15.15,12.05C77,316.8,75.09,322,73.54,327.22c-.87,3-3.38,6.9-1.31,8.87,2.49,2.39,5.47-1.41,8.24-2.56.81-.33,1.7-1.56,2.53-.27.72,1.12-.29,1.79-1.11,2.38-.14.09-.29.16-.44.24-3.46,1.71-7,5.57-10.82,2.8-3.56-2.56-1-6.78-.1-10.18,1.55-5.94,4-11.65,4.79-17.79.75-5.52-1.88-9.55-6.48-9.94-6.25-.54-11.58,3.59-11.59,9,0,4,0,8,0,12,0,1,.16,2.25-1.28,2.18s-1.13-1.38-1.13-2.32c0-7.67-.21-15.34.08-23,.15-4-.45-6.46-5.24-5.57C48.47,293.27,47,293.54,46.05,292.19Z"/><path class="cls-1" d="M325.09,325.92c.32-.4,1.1-.8.28-1.28-.27-.16-.94.37-1.43.59a2.32,2.32,0,0,1-.44.39l-27.59,17.11c2.37,2.48,4.31,4.52,6.26,6.55.62.64,1.08,1.36.29,2.11s-1.43.1-2.16-.34c-2.84-1.75-3.73-7-8.12-5.59-3.21,1-5.94,3.56-8.89,5.43-1.54,1-3.08,2-4.64,2.91-.79.49-1.73,1.56-2.57.56-1.08-1.3.25-2.12,1.17-2.71,4-2.63,8.12-5.16,12.18-7.75.69-.44,1.33-1,2.19-1.61-2-2.15-3.92-4.17-5.77-6.24a1.39,1.39,0,0,1,.12-2.18c.61-.45,1.24,0,1.73.5s.7.71,1.07,1.05c5.72,5.32,5.72,5.32,12.24,1.14l22.21-14.24c-3.82-1.5-6.77.59-9.81.43-1-.05-2.61.8-2.7-1.1-.07-1.45,1.37-1.15,2.26-1.3,5.58-.9,11.16-1.74,16.74-2.62,2.63-.42,3.07.82,1.94,2.78-2.9,5-5.93,10-9,14.94-.39.63-1,1.5-1.95.78-.78-.58-.71-1.3-.21-2.14"/><path class="cls-1" d="M35.63,256.11H47.3"/><path class="cls-1" d="M417.37,140.56l-1.51-.47Z"/><path class="cls-1" d="M397.49,136.5l-1.62-.4Z"/><path class="cls-1" d="M346.88,235.3l1.21-.5Z"/><path class="cls-1" d="M336.88,238.32l1.26-.51Z"/><path class="cls-1" d="M356.41,198.37l-1.29.64-.77-.86"/><path class="cls-1" d="M329.88,240.31l1.25-.5Z"/><path class="cls-1" d="M392.65,168.15l-.39,1.51Z"/><path class="cls-1" d="M336.79,211.17l-.86.56Z"/><path class="cls-1" d="M301.94,82.83A19.23,19.23,0,0,1,329.62,79c2.6,2,4.1,2.59,7.1.7,4.38-2.78,10.65-2,13.57.77,3.1,3,3.66,8.64,1.33,13.51-8.39,17.57-35,26.06-51.67,16-10.73-6.48-14.86-17.49-17.08-29.14-.86-4.51,1.64-6.17,6.4-5.45C294.48,76.2,298.22,79.49,301.94,82.83Z"/><path class="cls-1" d="M330.26,227.66c-.16,1-.31,2-.46,2.93a2,2,0,0,0-.59,2.07c-.13.67-.26,1.34-.38,2s-.44,1.33-.67,2-.29,1.19-.43,1.78c-1.6,1.83-3.39,1.34-5.42.75-11.43-3.35-22.9-6.57-35.65-10.21,6.85-2.13,12.69-3.69,18.33-5.78,5.35-2,10.51-3.59,16.26-1.52,3.17,1.15,6.56.39,9.85,0l-.42,4.56Z"/><path class="cls-1" d="M296.41,126.11c-.1-4.88,3.42-9.25,7.62-9.48,3.48-.18,5.92,2.65,6,7,.07,4.57-3.95,10.44-7.29,10.64S296.49,130.52,296.41,126.11Z"/><path class="cls-1" d="M356.41,198.37a98.48,98.48,0,0,0,18.06-11.21c5-3.79,12-4.48,15.44-10.46l.3,2,.43,4.06c0,.48.05,1,.08,1.43a5.08,5.08,0,0,0-.47,3.46c-.18,1.27-.35,2.54-.52,3.81l-.5,1.2a42.27,42.27,0,0,1-8.55,14.66l-5.13,4.26L370.8,214l-1.13.62-1.9.51-1,.51-1.92.38a2.57,2.57,0,0,0-2.35.53l-11.06,0-1.51-.44c-4.06-1.3-8.26-2.34-11.48-5.43,1.78-.84,3.84-1.37,5.23-2.64,1-.91,6,.13,2.38-3.77a20.72,20.72,0,0,1,1.83-1.28m1.17,2.57c13.79,6.17,31.3-5.19,31.19-19.5C370.75,193.86,360.24,199.72,349,205.55Z"/><path class="cls-1" d="M375.55,211.59l5.13-4.26"/><path class="cls-1" d="M390.25,187.66a5.08,5.08,0,0,1,.47-3.46C390.79,185.38,391.1,186.6,390.25,187.66Z"/><path class="cls-1" d="M329.21,232.66a2,2,0,0,1,.59-2.07C329.6,231.28,329.4,232,329.21,232.66Z"/><path class="cls-1" d="M328.16,236.67c.23-.67.45-1.34.67-2C328.61,235.33,328.39,236,328.16,236.67Z"/><path class="cls-1" d="M330.26,227.66l.42-1.45Z"/><path class="cls-1" d="M389.23,192.67l.5-1.2Z"/><path class="cls-1" d="M369.67,214.65l1.13-.62Z"/><path class="cls-1" d="M366.72,215.67l1-.51Z"/><path class="cls-1" d="M349.88,216.1l1.51.44Z"/><path class="cls-1" d="M135.88,88.06c-.27,1-1.13,1-1.94,1-23.26.51-42.22,11.59-60.43,24.53-.81.58-1.6,1.2-2.4,1.79-.57.41-1.23.67-1.79.15-.79-.73-.41-1.48.22-2.12a9.58,9.58,0,0,1,1.14-1c16.62-12.23,34.2-22.4,55.08-25.34a73,73,0,0,1,8-.42C134.69,86.63,135.82,86.54,135.88,88.06Z"/></g></g></svg>