<svg xmlns="http://www.w3.org/2000/svg" viewBox="0 0 329.46 329.46"><defs><style>.cls-1{fill:none;stroke:#000;stroke-linecap:round;stroke-linejoin:round;stroke-width:4px;}</style></defs><g id="Calque_2" data-name="Calque 2"><g id="Graphic_elements" data-name="Graphic elements"><circle class="cls-1" cx="164.73" cy="164.73" r="64.14"/><line class="cls-1" x1="164.73" y1="83.92" x2="164.73" y2="2"/><line class="cls-1" x1="164.73" y1="327.46" x2="164.73" y2="245.54"/><line class="cls-1" x1="83.92" y1="164.73" x2="2" y2="164.73"/><line class="cls-1" x1="327.46" y1="164.73" x2="245.54" y2="164.73"/><line class="cls-1" x1="107.59" y1="107.59" x2="66.68" y2="66.68"/><line class="cls-1" x1="262.78" y1="262.78" x2="221.87" y2="221.87"/><line class="cls-1" x1="107.59" y1="221.87" x2="66.68" y2="262.78"/><line class="cls-1" x1="262.78" y1="66.68" x2="221.87" y2="107.59"/><line class="cls-1" x1="134.57" y1="89.76" x2="112.97" y2="36.09"/><line class="cls-1" x1="216.5" y1="293.37" x2="194.9" y2="239.7"/><line class="cls-1" x1="89.76" y1="194.9" x2="36.09" y2="216.5"/><line class="cls-1" x1="293.37" y1="112.97" x2="239.7" y2="134.57"/><line class="cls-1" x1="90.39" y1="133.05" x2="37.17" y2="110.37"/><line class="cls-1" x1="292.3" y1="219.09" x2="239.07" y2="196.41"/><line class="cls-1" x1="133.05" y1="239.07" x2="110.37" y2="292.3"/><line class="cls-1" x1="219.09" y1="37.17" x2="196.41" y2="90.39"/><line class="cls-1" x1="98.75" y1="118.08" x2="74.02" y2="100.59"/><line class="cls-1" x1="255.44" y1="228.88" x2="230.71" y2="211.39"/><line class="cls-1" x1="118.08" y1="230.71" x2="100.59" y2="255.45"/><line class="cls-1" x1="228.88" y1="74.02" x2="211.39" y2="98.75"/><line class="cls-1" x1="85.61" y1="148.32" x2="55.95" y2="142.17"/><line class="cls-1" x1="273.52" y1="187.29" x2="243.86" y2="181.14"/><line class="cls-1" x1="148.32" y1="243.86" x2="142.17" y2="273.52"/><line class="cls-1" x1="187.29" y1="55.95" x2="181.14" y2="85.61"/><line class="cls-1" x1="85.09" y1="178.4" x2="55.23" y2="183.52"/><line class="cls-1" x1="274.23" y1="145.94" x2="244.38" y2="151.07"/><line class="cls-1" x1="178.4" y1="244.38" x2="183.52" y2="274.23"/><line class="cls-1" x1="145.94" y1="55.23" x2="151.07" y2="85.09"/><line class="cls-1" x1="120.55" y1="97.07" x2="103.98" y2="71.71"/><line class="cls-1" x1="225.48" y1="257.75" x2="208.92" y2="232.39"/><line class="cls-1" x1="97.07" y1="208.92" x2="71.71" y2="225.48"/><line class="cls-1" x1="257.75" y1="103.98" x2="232.39" y2="120.55"/><path class="cls-1" d="M123.46,164.73a55.13,55.13,0,0,1,86.92-45,64.15,64.15,0,1,0,0,90.11,55.14,55.14,0,0,1-86.92-45.06Z"/></g></g></svg>